<svg width="680" height="570" viewBox="0 0 680 570" fill="none" xmlns="http://www.w3.org/2000/svg">
<path d="M621.999 284.844C621.999 294.168 615.278 303.073 614.405 312.155C613.511 321.413 618.388 331.464 616.631 340.435C614.852 349.539 606.538 356.945 603.909 365.717C601.247 374.589 604.084 385.406 600.603 393.882C597.09 402.43 587.499 408.052 583.211 416.152C578.89 424.299 579.567 435.473 574.493 443.116C569.409 450.788 558.924 454.414 553.13 461.53C547.336 468.657 545.853 479.751 539.405 486.267C532.956 492.785 521.969 494.288 514.91 500.143C507.872 505.989 504.272 516.581 496.678 521.718C489.116 526.836 478.064 526.152 469.99 530.516C461.971 534.855 456.406 544.538 447.94 548.083C439.56 551.598 428.846 548.74 420.062 551.428C411.388 554.083 404.044 562.476 395.022 564.277C386.14 566.051 376.2 561.127 367.035 562.027C358.045 562.912 349.229 569.697 340.009 569.697C330.779 569.697 321.963 562.912 312.972 562.027C303.807 561.127 293.856 566.051 284.975 564.277C275.952 562.476 268.631 554.083 259.946 551.428C251.163 548.74 240.448 551.598 232.06 548.083C223.593 544.538 218.031 534.854 210.011 530.516C201.945 526.151 190.885 526.834 183.313 521.717C175.718 516.58 172.133 505.987 165.09 500.139C158.031 494.285 147.052 492.783 140.601 486.265C134.15 479.749 132.661 468.654 126.86 461.527C121.072 454.413 110.588 450.787 105.507 443.113C100.441 435.47 101.113 424.298 96.7919 416.151C92.502 408.05 82.914 402.43 79.4012 393.882C75.9198 385.405 78.7532 374.591 76.0964 365.718C73.4622 356.945 65.1559 349.539 63.3707 340.435C61.6187 331.464 66.4923 321.413 65.5952 312.155C64.7237 303.074 58 294.169 58 284.845C58 275.531 64.7231 266.626 65.5952 257.545C66.4923 248.287 61.6181 238.236 63.3707 229.265C65.1559 220.161 73.4622 212.743 76.0964 203.982C78.7532 195.109 75.9269 184.287 79.4012 175.811C82.9146 167.259 92.502 161.638 96.7919 153.537C101.113 145.393 100.441 134.217 105.507 126.579C110.588 118.908 121.081 115.283 126.867 108.163C132.661 101.032 134.15 89.9448 140.601 83.431C147.051 76.9065 158.04 75.4076 165.09 69.5551C172.133 63.7031 175.726 53.1114 183.321 47.9758C190.885 42.8619 201.945 43.5453 210.011 39.1808C218.03 34.8385 223.593 25.1505 232.06 21.6129C240.448 18.0975 251.163 20.9517 259.946 18.2627C268.631 15.6066 275.952 7.21931 284.975 5.41178C293.856 3.63728 303.796 8.56385 312.962 7.67089C321.963 6.77794 330.779 0 340.009 0C349.229 0 358.045 6.77794 367.035 7.67089C376.201 8.56385 386.14 3.63728 395.022 5.41178C404.045 7.21931 411.388 15.6066 420.062 18.2627C428.846 20.9517 439.56 18.0975 447.94 21.6129C456.406 25.1505 461.971 34.8385 469.99 39.1808C478.064 43.5453 489.116 42.8619 496.689 47.9758C504.283 53.1114 507.872 63.7031 514.91 69.5551C521.969 75.4076 532.956 76.9065 539.405 83.431C545.853 89.9448 547.337 101.043 553.142 108.163C558.936 115.283 569.41 118.908 574.494 126.579C579.568 134.228 578.892 145.393 583.212 153.548C587.5 161.638 597.091 167.27 600.604 175.811C604.084 184.286 601.247 195.109 603.91 203.982C606.539 212.744 614.853 220.161 616.632 229.265C618.388 238.236 613.511 248.287 614.406 257.534C615.279 266.626 622 275.532 622 284.845L621.999 284.844Z" fill="#00B533"/>
<path fill-rule="evenodd" clip-rule="evenodd" d="M340.001 13.7969C191.83 13.7969 71.6611 135.181 71.6611 284.847C71.6611 434.514 191.832 555.896 340.001 555.896C488.169 555.896 608.339 434.512 608.339 284.847C608.339 135.181 488.171 13.7969 340.001 13.7969Z" fill="#FEFEFE"/>
<path d="M339.999 132.415H340.001C423.332 132.415 490.909 200.677 490.909 284.851V284.852C490.909 369.025 423.331 437.286 340.001 437.286L339.999 437.288C256.669 437.286 189.092 369.025 189.092 284.852L189.09 284.851C189.092 200.677 256.669 132.415 340 132.415H339.999Z" fill="#00B533"/>
<path d="M423.844 284.848C423.844 238.076 386.309 200.161 340.005 200.161C293.703 200.161 256.167 238.076 256.167 284.848C256.167 331.619 293.703 369.534 340.005 369.534C386.309 369.534 423.844 331.619 423.844 284.848Z" fill="#FFFDFD"/>
<path d="M432.229 247.481C432.229 219.012 409.382 195.933 381.198 195.933C353.014 195.933 330.167 219.011 330.167 247.481C330.167 275.95 353.014 299.029 381.198 299.029C409.382 299.029 432.229 275.95 432.229 247.481Z" fill="#FFCC19"/>
<path fill-rule="evenodd" clip-rule="evenodd" d="M340.001 22.3562C196.512 22.3562 80.1367 139.91 80.1367 284.851C80.1367 429.792 196.514 547.343 340.002 547.343C483.49 547.343 599.865 429.79 599.865 284.851C599.865 139.91 483.49 22.3562 340.001 22.3562ZM340.001 28.7107C199.984 28.7107 86.4276 143.418 86.4276 284.851C86.4276 426.284 199.986 540.99 340.002 540.99C480.017 540.99 593.574 426.283 593.574 284.851C593.574 143.418 480.017 28.7107 340.001 28.7107Z" fill="#3A4D56"/>
<path fill-rule="evenodd" clip-rule="evenodd" d="M340.001 115.171C247.248 115.171 172.021 191.159 172.021 284.85C172.021 378.542 247.248 454.529 340.001 454.529C432.754 454.529 507.979 378.541 507.979 284.85C507.979 191.159 432.754 115.171 340.001 115.171ZM340.001 119.279C249.492 119.279 176.088 193.427 176.088 284.851C176.088 376.275 249.494 450.422 340.001 450.422C430.508 450.422 503.913 376.274 503.913 284.851C503.913 193.427 430.509 119.279 340.001 119.279Z" fill="#FECC14"/>
<path d="M179.926 177.762L175.841 185.589L164.604 184.493L155.556 201.828L162.83 210.517L158.835 218.17L128.916 181.342L132.91 173.69L179.927 177.762L179.926 177.762ZM138.971 182.03L150.632 195.945L156.986 183.77L138.971 182.03ZM211.911 122.508L218.48 117.705C220.813 122.525 221.374 127.482 220.164 132.574C218.954 137.665 216.002 141.928 211.306 145.361C205.981 149.255 200.355 150.645 194.43 149.529C188.504 148.414 183.69 145.272 179.988 140.105C176.26 134.901 174.79 129.274 175.58 123.223C176.369 117.171 179.427 112.198 184.753 108.304C189.343 104.948 194.196 103.449 199.312 103.808C204.428 104.166 208.88 106.169 212.67 109.817L206.1 114.621C203.65 112.691 200.898 111.683 197.845 111.596C194.792 111.509 191.929 112.469 189.257 114.477C185.814 117.049 183.853 120.33 183.375 124.32C182.897 128.31 183.875 132.004 186.31 135.401C188.745 138.799 191.913 140.892 195.815 141.679C199.717 142.467 203.402 141.593 206.871 139.057C209.709 136.982 211.551 134.448 212.398 131.456C213.244 128.464 213.082 125.481 211.912 122.507L211.911 122.508ZM288.474 101.213L280.298 104.386L272.554 96.0883L254.446 103.118L254.256 114.495L246.261 117.598L247.747 69.9804L255.742 66.877L288.474 101.212V101.213ZM254.868 77.1868L254.574 95.4153L267.292 90.4781L254.868 77.1868ZM314.793 96.321L313.653 52.4918L331.554 52.017C337.91 51.8482 343.196 53.7733 347.411 57.7918C351.626 61.8096 353.816 66.9639 353.979 73.2534L353.984 73.4498C354.148 79.7392 352.229 85.0023 348.229 89.2384C344.228 93.4752 339.05 95.6774 332.694 95.8463L314.793 96.321ZM331.624 59.685L321.636 59.9502L322.379 88.5148L332.367 88.2496C336.518 88.1395 339.877 86.7279 342.446 84.016C345.015 81.3034 346.245 77.851 346.136 73.658L346.13 73.4616C346.021 69.2687 344.614 65.8969 341.908 63.3463C339.202 60.7958 335.774 59.5755 331.623 59.6856L331.624 59.685ZM414.247 110.971L382.872 101.435L395.398 59.3873L426.773 68.924L424.585 76.2667L400.666 68.996L397.805 78.5978L419.426 85.1699L417.314 92.2618L395.693 85.6897L392.514 96.3585L416.434 103.629L414.247 110.972V110.971ZM505.615 122.348L477.857 156.141L471.866 151.119L492.083 126.506L461.53 142.456L457.136 138.773L467.068 105.539L446.85 130.152L440.858 125.13L468.616 91.3374L476.905 98.2842L466.932 131.568L497.477 115.526L505.616 122.347L505.615 122.348ZM549.283 188.245L553.255 196.423L522.417 191.705L506.398 199.644L502.969 192.583L518.696 184.789L534.164 157.12L538.222 165.475L527.021 185.116L549.283 188.245Z" fill="#00B533"/>
<path d="M297.415 470.567C301.752 470.567 305.367 471.972 308.258 474.782C311.15 477.592 312.596 481.122 312.596 485.371C312.596 489.664 311.139 493.204 308.225 495.992C305.312 498.78 301.709 500.174 297.415 500.174H283.876V515.044H275.99V470.567H297.414H297.415ZM283.876 492.606H296.954C299.189 492.606 301.018 491.943 302.442 490.615C303.866 489.287 304.578 487.561 304.578 485.437C304.578 483.357 303.855 481.653 302.409 480.325C300.964 478.997 299.146 478.334 296.955 478.334H283.877V492.606H283.876ZM319.561 514.978V470.567H337.699C344.14 470.567 349.442 472.658 353.604 476.84C357.766 481.022 359.847 486.3 359.847 492.673V492.872C359.847 499.245 357.766 504.522 353.604 508.705C349.442 512.887 344.14 514.978 337.699 514.978H319.561ZM337.568 478.334H327.448V507.277H337.568C341.774 507.277 345.213 505.938 347.886 503.261C350.559 500.583 351.895 497.12 351.895 492.871V492.672C351.895 488.423 350.559 484.971 347.886 482.316C345.214 479.661 341.774 478.333 337.568 478.333V478.334ZM388.829 470.567C393.166 470.567 396.781 471.972 399.672 474.782C402.564 477.592 404.01 481.122 404.01 485.371C404.01 489.664 402.553 493.204 399.64 495.992C396.726 498.78 393.123 500.174 388.829 500.174H375.29V515.044H367.404V470.567H388.828H388.829ZM375.29 492.606H388.369C390.603 492.606 392.432 491.943 393.856 490.615C395.281 489.287 395.993 487.561 395.993 485.437C395.993 483.357 395.269 481.653 393.824 480.325C392.378 478.997 390.56 478.334 388.369 478.334H375.291V492.606H375.29Z" fill="#00B533"/>
<path d="M122.92 283.603L114.81 291.911H125.866V296.433H108V292.839L119.898 280.549C120.714 279.802 121.122 278.901 121.122 277.844C121.122 277.02 120.816 276.35 120.204 275.835C119.592 275.319 118.801 275.062 117.832 275.062H108.267V270.54H117.832C120.153 270.54 122.04 271.21 123.494 272.55C124.948 273.89 125.675 275.577 125.675 277.612C125.675 279.802 124.757 281.799 122.92 283.602V283.603ZM128.889 286.694V280.279C128.889 277.291 129.851 274.83 131.777 272.898C133.703 270.966 136.132 270 139.065 270C141.973 270 144.396 270.96 146.335 272.879C148.273 274.798 149.242 277.252 149.242 280.24V286.694C149.242 289.683 148.266 292.143 146.315 294.075C144.364 296.008 141.935 296.974 139.027 296.974C136.119 296.974 133.703 296.007 131.777 294.075C129.851 292.143 128.889 289.683 128.889 286.694ZM133.48 280.279V286.694C133.48 288.421 133.996 289.799 135.03 290.829C136.062 291.86 137.395 292.375 139.028 292.375C140.66 292.375 142.012 291.854 143.083 290.81C144.154 289.767 144.69 288.395 144.69 286.694V280.24C144.69 278.566 144.161 277.194 143.102 276.125C142.044 275.056 140.698 274.521 139.066 274.521C137.434 274.521 136.095 275.049 135.049 276.106C134.003 277.162 133.48 278.553 133.48 280.279H133.48Z" fill="#3A4D56"/>
<path d="M506.783 389.861C505.097 396.315 504.726 402.931 505.675 408.684C510.117 406.403 514.102 401.629 515.939 394.96C517.775 388.291 517.05 381.081 514.627 375.176C511.184 378.289 508.469 383.407 506.783 389.86V389.861Z" fill="#3A4D56"/>
<path d="M513.324 408.851C508.556 411.535 501.048 419.92 501.405 421.607C501.71 423.043 509.943 424.818 515.086 422.337C520.228 419.858 527.45 410.409 526.714 408.375C526.148 406.81 518.092 406.166 513.324 408.85V408.851Z" fill="#3A4D56"/>
<path d="M514.778 430.812C511.397 428.379 506.865 427.974 501.871 429.806C496.875 431.64 488.42 438.339 488.516 439.652C488.602 440.824 496.181 443.308 501.462 441.694C506.744 440.081 511.62 436.06 514.778 430.812L514.778 430.812Z" fill="#3A4D56"/>
<path d="M498.674 450.242C495.847 447.788 491.607 446.943 486.59 447.965C481.573 448.989 472.535 453.96 472.474 454.925C472.416 455.84 479.198 458.869 484.429 458.07C489.661 457.269 494.865 454.377 498.674 450.242Z" fill="#3A4D56"/>
<path d="M478.982 466.087C476.697 463.701 472.841 462.495 467.972 462.769C463.102 463.042 453.812 466.291 453.678 466.943C453.538 467.625 459.431 471.022 464.456 470.967C469.479 470.913 474.779 469.106 478.981 466.087H478.982Z" fill="#3A4D56"/>
<path d="M446.51 473.678C441.924 473.278 432.676 474.855 432.538 475.236C432.365 475.717 437.327 479.303 442.021 479.91C446.715 480.516 456.144 478.339 456.277 477.796C456.419 477.219 451.097 474.076 446.51 473.678Z" fill="#3A4D56"/>
<path d="M501.06 401.206C502.339 407.357 499.271 418.996 498.119 419.251C496.975 419.503 492.035 412.074 491.105 406.105C490.174 400.136 491.802 388.557 492.494 388.281C493.405 387.916 499.781 395.053 501.06 401.206Z" fill="#3A4D56"/>
<path d="M485.031 409.547C488.425 411.957 490.888 416.219 491.121 421.709C491.354 427.198 486.883 436.984 485.52 437.092C484.315 437.188 480.771 430.247 480.806 424.956C480.842 419.665 482.484 414.254 485.031 409.547Z" fill="#3A4D56"/>
<path d="M473.547 428.585C476.391 431.02 478.044 434.949 477.417 439.675C476.79 444.403 471.33 452.311 469.806 452.22C468.593 452.147 466.297 445.873 467.128 441.351C467.957 436.829 470.36 432.361 473.547 428.585Z" fill="#3A4D56"/>
<path d="M458.45 444.772C460.75 447.147 461.693 450.642 460.386 454.534C459.076 458.427 452.998 464.481 451.371 464.147C450.205 463.909 448.982 458.443 450.437 454.751C451.893 451.061 454.845 447.586 458.45 444.772Z" fill="#3A4D56"/>
<path d="M440.473 465.736C438.658 468.751 432.288 473.019 430.615 472.415C429.547 472.029 429.207 467.467 431.123 464.644C433.041 461.821 438.747 457.178 440.164 457.5C441.216 457.74 442.287 462.72 440.473 465.736Z" fill="#3A4D56"/>
<path d="M173.214 389.861C174.9 396.315 175.272 402.931 174.323 408.684C169.881 406.403 165.896 401.629 164.059 394.96C162.223 388.291 162.948 381.081 165.371 375.176C168.813 378.289 171.528 383.407 173.214 389.86V389.861Z" fill="#3A4D56"/>
<path d="M166.673 408.851C171.441 411.535 178.949 419.92 178.592 421.607C178.287 423.043 170.054 424.818 164.911 422.337C159.769 419.858 152.547 410.409 153.283 408.375C153.848 406.81 161.905 406.166 166.673 408.85V408.851Z" fill="#3A4D56"/>
<path d="M165.218 430.812C168.6 428.379 173.131 427.974 178.126 429.806C183.121 431.64 191.576 438.339 191.48 439.652C191.395 440.824 183.816 443.308 178.534 441.694C173.252 440.081 168.377 436.06 165.219 430.812L165.218 430.812Z" fill="#3A4D56"/>
<path d="M181.325 450.239C184.152 447.785 188.391 446.94 193.409 447.962C198.425 448.986 207.463 453.957 207.525 454.922C207.582 455.837 200.801 458.866 195.57 458.067C190.338 457.266 185.134 454.374 181.325 450.239Z" fill="#3A4D56"/>
<path d="M201.016 466.087C203.301 463.701 207.157 462.495 212.026 462.769C216.896 463.042 226.186 466.291 226.319 466.943C226.459 467.625 220.567 471.022 215.542 470.967C210.519 470.913 205.219 469.106 201.017 466.087H201.016Z" fill="#3A4D56"/>
<path d="M233.487 473.678C238.074 473.278 247.322 474.855 247.46 475.236C247.633 475.717 242.67 479.303 237.977 479.91C233.283 480.516 223.854 478.339 223.721 477.796C223.579 477.219 228.901 474.076 233.487 473.678Z" fill="#3A4D56"/>
<path d="M178.938 401.206C177.659 407.357 180.727 418.996 181.879 419.251C183.023 419.503 187.963 412.074 188.893 406.105C189.824 400.136 188.196 388.557 187.504 388.281C186.593 387.916 180.217 395.053 178.938 401.206Z" fill="#3A4D56"/>
<path d="M194.968 409.547C191.574 411.957 189.111 416.219 188.878 421.709C188.645 427.198 193.116 436.984 194.479 437.092C195.684 437.188 199.227 430.247 199.192 424.956C199.157 419.665 197.514 414.254 194.968 409.547Z" fill="#3A4D56"/>
<path d="M206.451 428.585C203.608 431.02 201.954 434.949 202.582 439.675C203.209 444.403 208.669 452.311 210.193 452.22C211.405 452.147 213.702 445.873 212.871 441.351C212.041 436.829 209.639 432.361 206.451 428.585Z" fill="#3A4D56"/>
<path d="M221.548 444.772C219.247 447.147 218.305 450.642 219.612 454.534C220.922 458.427 227 464.481 228.627 464.147C229.793 463.909 231.016 458.443 229.56 454.751C228.105 451.061 225.153 447.586 221.548 444.772Z" fill="#3A4D56"/>
<path d="M239.525 465.736C241.34 468.751 247.71 473.019 249.383 472.415C250.451 472.029 250.791 467.467 248.874 464.644C246.957 461.821 241.25 457.178 239.834 457.5C238.782 457.74 237.711 462.72 239.525 465.736Z" fill="#3A4D56"/>
<path d="M547.44 272V297.563H542.982V276.464H537V272H547.44Z" fill="#3A4D56"/>
<path d="M552.225 276.464V272H569.538V275.472L559.47 297.563H554.602L564.411 276.464H552.225Z" fill="#3A4D56"/>
</svg>
