<svg width="34" height="35" viewBox="0 0 34 35" fill="none" xmlns="http://www.w3.org/2000/svg">
<g id="briefcase">
<path id="Vector 998 (Stroke)" fill-rule="evenodd" clip-rule="evenodd" d="M15.334 2.58398C13.2629 2.58398 11.584 4.26292 11.584 6.33398V8.00065C11.584 8.69101 11.0243 9.25065 10.334 9.25065C9.64363 9.25065 9.08398 8.69101 9.08398 8.00065V6.33398C9.08398 2.8822 11.8822 0.0839844 15.334 0.0839844H18.6673C22.1191 0.0839844 24.9173 2.8822 24.9173 6.33398V8.00065C24.9173 8.69101 24.3577 9.25065 23.6673 9.25065C22.977 9.25065 22.4173 8.69101 22.4173 8.00065V6.33398C22.4173 4.26292 20.7384 2.58398 18.6673 2.58398H15.334Z" fill="#00C508"/>
<path id="Vector" opacity="0.4" d="M0.333984 14.6667C0.333984 10.9848 3.31875 8 7.00065 8H27.0007C30.6826 8 33.6673 10.9848 33.6673 14.6667V28C33.6673 31.6819 30.6826 34.6667 27.0007 34.6667H7.00065C3.31875 34.6667 0.333984 31.6819 0.333984 28V14.6667Z" fill="#00C508"/>
<path id="Subtract" d="M27.0007 8H7.00065C3.31875 8 0.333984 10.9848 0.333984 14.6667C0.333984 14.6667 2.32793 16.3838 7.09073 17.6451C7.53174 17.7619 7.96991 17.4776 8.21873 17.0952C8.6646 16.4099 9.43723 15.9568 10.3157 15.9568C11.6964 15.9568 12.8157 17.0761 12.8157 18.4568C12.8157 18.5809 12.9092 18.6851 13.0327 18.6977C14.2523 18.822 15.5707 18.907 16.9923 18.9402C18.3787 18.9725 19.6672 18.9406 20.8618 18.8587C21.0356 18.8468 21.1696 18.7018 21.1696 18.5276V18.4568C21.1696 17.0761 22.2889 15.9568 23.6696 15.9568C24.6053 15.9568 25.421 16.4709 25.8496 17.232C26.0887 17.6568 26.5505 17.9889 27.021 17.8612C31.7005 16.5914 33.6673 14.6667 33.6673 14.6667C33.6673 10.9848 30.6826 8 27.0007 8Z" fill="#00C508"/>
<rect id="Rectangle 1140" x="9.06641" y="17.2891" width="2.5" height="4.65671" rx="1.25" fill="#00C508"/>
<rect id="Rectangle 1141" x="22.4199" y="17.2891" width="2.5" height="4.65671" rx="1.25" fill="#00C508"/>
</g>
</svg>
