<svg xmlns="http://www.w3.org/2000/svg"  viewBox="0 0 32 32" width="32px" height="32px"><path d="M26.5,6H23V4c0-0.553-0.447-1-1-1s-1,0.447-1,1v2H11V4c0-0.553-0.447-1-1-1S9,3.448,9,4v2H5.5	C4.445,6,3.457,6.469,2.79,7.286C2.44,7.713,2.504,8.343,2.932,8.693S3.99,8.979,4.339,8.551C4.447,8.418,4.58,8.315,4.722,8.228	c0.084-0.051,0.173-0.095,0.267-0.129c0.036-0.013,0.072-0.027,0.109-0.037C5.226,8.026,5.36,8,5.5,8H9v2c0,0.553,0.447,1,1,1	s1-0.447,1-1V8h10v2c0,0.553,0.447,1,1,1s1-0.447,1-1V8h3.5c0.147,0,0.286,0.028,0.42,0.067c0.027,0.008,0.054,0.016,0.081,0.025	c0.13,0.047,0.255,0.108,0.365,0.187c0.005,0.004,0.01,0.008,0.015,0.012c0.115,0.085,0.218,0.186,0.305,0.3	c0.003,0.004,0.006,0.007,0.009,0.011c0.089,0.12,0.162,0.253,0.213,0.396C27.964,9.157,28,9.324,28,9.5V13H7v12.5	C7,26.328,6.328,27,5.5,27C4.673,27,4,26.328,4,25.5V12.245v-0.894c0-0.553-0.447-1-1-1s-1,0.447-1,1V25.5C2,27.43,3.57,29,5.5,29	h21c1.93,0,3.5-1.57,3.5-3.5v-16C30,7.571,28.43,6,26.5,6z M22,16h3v3h-3V16z M22,22h3v3h-3V22z M16,16h3v3h-3V16z M16,22h3v3h-3V22	z M10,16h3v3h-3V16z M10,22h3v3h-3V22z"/></svg>