<svg xmlns="http://www.w3.org/2000/svg"  viewBox="0 0 48 48" width="48px" height="48px"><path d="M 12 5 C 10.904545 5 10 5.9045455 10 7 L 10 10 L 9 10 C 6.2500302 10 4 12.25003 4 15 L 4 38 C 4 40.74997 6.2500302 43 9 43 L 39 43 C 41.74997 43 44 40.74997 44 38 L 44 15 C 44 13.193087 43.034309 11.596231 41.585938 10.720703 A 1.0001 1.0001 0 1 0 40.550781 12.431641 C 41.418409 12.956113 42 13.902913 42 15 L 42 38 C 42 39.67003 40.67003 41 39 41 L 9 41 C 7.3299698 41 6 39.67003 6 38 L 6 15 C 6 13.32997 7.3299698 12 9 12 L 11 12 A 1.0001 1.0001 0 0 0 12 11 L 12 7 L 16 7 L 16 11 A 1.0001 1.0001 0 1 0 18 11 L 18 7 C 18 5.9045455 17.095455 5 16 5 L 12 5 z M 32 5 C 30.904545 5 30 5.9045455 30 7 L 30 10 L 21 10 A 1.0001 1.0001 0 1 0 21 12 L 31 12 A 1.0001 1.0001 0 0 0 32 11 L 32 7 L 36 7 L 36 11 A 1.0001 1.0001 0 1 0 38 11 L 38 7 C 38 5.9045455 37.095455 5 36 5 L 32 5 z M 15.984375 22.986328 A 1.0001 1.0001 0 0 0 15 24 L 15 26 L 12 26 A 1.0001 1.0001 0 1 0 12 28 L 16 28 A 1.0001 1.0001 0 0 0 17 27 L 17 24 A 1.0001 1.0001 0 0 0 15.984375 22.986328 z M 25.984375 22.986328 A 1.0001 1.0001 0 0 0 25 24 L 25 26 L 22 26 A 1.0001 1.0001 0 1 0 22 28 L 26 28 A 1.0001 1.0001 0 0 0 27 27 L 27 24 A 1.0001 1.0001 0 0 0 25.984375 22.986328 z M 35.984375 22.986328 A 1.0001 1.0001 0 0 0 35 24 L 35 26 L 32 26 A 1.0001 1.0001 0 1 0 32 28 L 36 28 A 1.0001 1.0001 0 0 0 37 27 L 37 24 A 1.0001 1.0001 0 0 0 35.984375 22.986328 z M 15.984375 31.986328 A 1.0001 1.0001 0 0 0 15 33 L 15 35 L 12 35 A 1.0001 1.0001 0 1 0 12 37 L 16 37 A 1.0001 1.0001 0 0 0 17 36 L 17 33 A 1.0001 1.0001 0 0 0 15.984375 31.986328 z M 25.984375 31.986328 A 1.0001 1.0001 0 0 0 25 33 L 25 35 L 22 35 A 1.0001 1.0001 0 1 0 22 37 L 26 37 A 1.0001 1.0001 0 0 0 27 36 L 27 33 A 1.0001 1.0001 0 0 0 25.984375 31.986328 z M 35.984375 31.986328 A 1.0001 1.0001 0 0 0 35 33 L 35 35 L 32 35 A 1.0001 1.0001 0 1 0 32 37 L 36 37 A 1.0001 1.0001 0 0 0 37 36 L 37 33 A 1.0001 1.0001 0 0 0 35.984375 31.986328 z"/></svg>