<svg width="80" height="30" viewBox="0 0 80 30" fill="none" xmlns="http://www.w3.org/2000/svg">
<path d="M40.9706 3.71932C41.9381 3.71932 42.7428 4.02537 43.3845 4.63747C44.0262 5.24957 44.347 6.01469 44.347 6.93284C44.347 7.86086 44.0262 8.62598 43.3845 9.22821C42.7428 9.82056 41.9381 10.1167 40.9706 10.1167H37.7275V13.6412H36.291V3.71932H40.9706ZM37.7275 8.73951H40.9262C41.5087 8.73951 41.9826 8.57168 42.3479 8.23601C42.7131 7.90035 42.8958 7.46596 42.8958 6.93284C42.8958 6.40959 42.7082 5.98014 42.333 5.64447C41.9678 5.29893 41.4988 5.12616 40.9262 5.12616H37.7275V8.73951ZM46.2263 13.6264V3.71932H50.2098C51.6315 3.71932 52.8063 4.18827 53.7343 5.12616C54.6624 6.05418 55.1264 7.22901 55.1264 8.65066V8.69509C55.1264 10.1167 54.6624 11.2965 53.7343 12.2344C52.8063 13.1624 51.6315 13.6264 50.2098 13.6264H46.2263ZM50.195 5.12616H47.6627V12.2196H50.195C51.2119 12.2196 52.0461 11.8938 52.6977 11.2422C53.3493 10.5807 53.6751 9.73171 53.6751 8.69509V8.65066C53.6751 7.61404 53.3493 6.76994 52.6977 6.11835C52.0461 5.45689 51.2119 5.12616 50.195 5.12616ZM61.8245 3.71932C62.792 3.71932 63.5966 4.02537 64.2383 4.63747C64.88 5.24957 65.2009 6.01469 65.2009 6.93284C65.2009 7.86086 64.88 8.62598 64.2383 9.22821C63.5966 9.82056 62.792 10.1167 61.8245 10.1167H58.5813V13.6412H57.1449V3.71932H61.8245ZM58.5813 8.73951H61.78C62.3625 8.73951 62.8364 8.57168 63.2017 8.23601C63.567 7.90035 63.7496 7.46596 63.7496 6.93284C63.7496 6.40959 63.562 5.98014 63.1869 5.64447C62.8216 5.29893 62.3526 5.12616 61.78 5.12616H58.5813V8.73951Z" fill="white"/>
<path d="M39.2359 16.0539H41.4366V24.0661C41.4366 24.8203 41.2299 25.4041 40.8167 25.8174C40.4137 26.2306 39.8351 26.4373 39.0809 26.4373H35.346V24.2986H38.5075C38.9931 24.2986 39.2359 24.061 39.2359 23.5857V16.0539ZM42.7976 22.8728V18.7194H44.8897V22.8418C44.8897 23.3584 45.0395 23.7872 45.3392 24.1281C45.6388 24.4691 46.0521 24.6395 46.579 24.6395C47.1059 24.6395 47.514 24.4691 47.8033 24.1281C48.1029 23.7872 48.2527 23.3584 48.2527 22.8418V18.7194H50.3449V22.8728C50.3449 24.0403 50.0039 24.965 49.3221 25.6469C48.6505 26.3288 47.7361 26.6697 46.579 26.6697C45.4218 26.6697 44.5023 26.3288 43.8204 25.6469C43.1385 24.9547 42.7976 24.03 42.7976 22.8728ZM56.255 18.5025C57.2056 18.5025 57.9546 18.8073 58.5022 19.4168C59.0498 20.0264 59.3236 20.8788 59.3236 21.9739V26.4373H57.2314V22.2839C57.2314 21.7466 57.0816 21.323 56.782 21.0131C56.4823 20.7031 56.1052 20.5482 55.6506 20.5482C55.165 20.5482 54.7518 20.7238 54.4108 21.0751C54.0699 21.416 53.8994 21.8706 53.8994 22.4389V26.4373H51.8072V18.7194H53.8374V19.6493H53.9149C54.4625 18.8848 55.2425 18.5025 56.255 18.5025ZM60.7971 15.279H62.8892V17.7276H60.7971V15.279ZM60.7971 18.7194H62.8892V26.4373H60.7971V18.7194ZM71.17 25.5074C70.4055 26.2823 69.4033 26.6697 68.1635 26.6697C66.9237 26.6697 65.9215 26.2823 65.157 25.5074C64.3924 24.7325 64.0101 23.7562 64.0101 22.5784C64.0101 21.4109 64.3924 20.4397 65.157 19.6648C65.9215 18.8796 66.9237 18.487 68.1635 18.487C69.4033 18.487 70.4055 18.8796 71.17 19.6648C71.9346 20.4397 72.3169 21.4109 72.3169 22.5784C72.3169 23.7562 71.9346 24.7325 71.17 25.5074ZM68.1635 24.6395C68.7627 24.6395 69.2535 24.4432 69.6358 24.0506C70.0284 23.6477 70.2247 23.1569 70.2247 22.5784C70.2247 21.9894 70.0335 21.4987 69.6513 21.1061C69.269 20.7031 68.7731 20.5017 68.1635 20.5017C67.5539 20.5017 67.058 20.7031 66.6757 21.1061C66.2935 21.4987 66.1023 21.9894 66.1023 22.5784C66.1023 23.1673 66.2935 23.658 66.6757 24.0506C67.058 24.4432 67.5539 24.6395 68.1635 24.6395ZM77.2946 18.7194H78.9219V20.8116H77.1861C76.6799 20.8116 76.2666 20.9769 75.9463 21.3075C75.626 21.6382 75.4659 22.0669 75.4659 22.5939V26.4373H73.3737V18.7194H75.3574V19.9283H75.4349C75.7345 19.1224 76.3544 18.7194 77.2946 18.7194Z" fill="#04C9D6"/>
<circle cx="14.8822" cy="15" r="14.8822" fill="#00E0EF"/>
<rect x="1.5766" y="9.50537" width="24.414" height="11.9724" rx="5.98622" fill="#002227"/>
<path d="M17.0291 15.6825H21.3733" stroke="#39E1EC" stroke-width="1.33516" stroke-linecap="round"/>
<path d="M6.38361 13.8007L10.1937 15.6815" stroke="#39E1EC" stroke-width="1.33516" stroke-linecap="round"/>
<path d="M10.1951 15.6825L6.38493 17.5633" stroke="#39E1EC" stroke-width="1.33516" stroke-linecap="round"/>
</svg>
