<svg width="85" height="32" viewBox="0 0 85 32" fill="none" xmlns="http://www.w3.org/2000/svg">
<path d="M40.0134 3.25572C41.0575 3.25572 41.9258 3.586 42.6183 4.24656C43.3109 4.90711 43.6571 5.73281 43.6571 6.72364C43.6571 7.72513 43.3109 8.55083 42.6183 9.20073C41.9258 9.83998 41.0575 10.1596 40.0134 10.1596H36.5135V13.9631H34.9633V3.25572H40.0134ZM36.5135 8.67335H39.9655C40.594 8.67335 41.1054 8.49223 41.4997 8.12999C41.8939 7.76775 42.091 7.29897 42.091 6.72364C42.091 6.15897 41.8885 5.69552 41.4837 5.33328C41.0895 4.96038 40.5834 4.77394 39.9655 4.77394H36.5135V8.67335ZM45.6851 13.9472V3.25572H49.9841C51.5183 3.25572 52.7861 3.76179 53.7876 4.77394C54.7891 5.77542 55.2898 7.04327 55.2898 8.57746V8.62541C55.2898 10.1596 54.7891 11.4328 53.7876 12.4449C52.7861 13.4464 51.5183 13.9472 49.9841 13.9472H45.6851ZM49.9681 4.77394H47.2353V12.4289H49.9681C51.0654 12.4289 51.9657 12.0774 52.6689 11.3742C53.3721 10.6604 53.7237 9.74409 53.7237 8.62541V8.57746C53.7237 7.45878 53.3721 6.54785 52.6689 5.84468C51.9657 5.13085 51.0654 4.77394 49.9681 4.77394ZM62.5182 3.25572C63.5623 3.25572 64.4306 3.586 65.1231 4.24656C65.8157 4.90711 66.1619 5.73281 66.1619 6.72364C66.1619 7.72513 65.8157 8.55083 65.1231 9.20073C64.4306 9.83998 63.5623 10.1596 62.5182 10.1596H59.0183V13.9631H57.4681V3.25572H62.5182ZM59.0183 8.67335H62.4703C63.0988 8.67335 63.6102 8.49223 64.0044 8.12999C64.3987 7.76775 64.5958 7.29897 64.5958 6.72364C64.5958 6.15897 64.3933 5.69552 63.9885 5.33328C63.5943 4.96038 63.0882 4.77394 62.4703 4.77394H59.0183V8.67335Z" fill="white"/>
<path d="M44.2456 26.3337C43.1641 27.4486 41.7425 28.0061 39.9809 28.0061C38.2192 28.0061 36.7921 27.4486 35.6994 26.3337C34.6179 25.2075 34.0771 23.825 34.0771 22.186C34.0771 20.547 34.6235 19.1588 35.7161 18.0216C36.8088 16.8843 38.2304 16.3157 39.9809 16.3157C41.7314 16.3157 43.153 16.8843 44.2456 18.0216C45.3383 19.1588 45.8846 20.547 45.8846 22.186C45.8846 23.825 45.3383 25.2075 44.2456 26.3337ZM37.4555 24.6612C38.091 25.3413 38.9328 25.6814 39.9809 25.6814C41.0289 25.6814 41.8707 25.3413 42.5063 24.6612C43.1418 23.9811 43.4596 23.1504 43.4596 22.1693C43.4596 21.1881 43.1418 20.3574 42.5063 19.6773C41.8707 18.9972 41.0289 18.6571 39.9809 18.6571C38.9328 18.6571 38.091 18.9972 37.4555 19.6773C36.8199 20.3574 36.5022 21.1881 36.5022 22.1693C36.5022 23.1393 36.8199 23.9699 37.4555 24.6612ZM52.0489 19.209C53.0747 19.209 53.8831 19.5379 54.474 20.1958C55.0649 20.8536 55.3604 21.7734 55.3604 22.9553V27.772H53.1026V23.2898C53.1026 22.71 52.9409 22.2529 52.6176 21.9184C52.2942 21.5839 51.8873 21.4167 51.3967 21.4167C50.8726 21.4167 50.4267 21.6062 50.0587 21.9853C49.6908 22.3532 49.5068 22.8438 49.5068 23.457V27.772H47.249V19.4432H49.4399V20.4466H49.5235C50.1145 19.6216 50.9563 19.209 52.0489 19.209ZM56.8502 25.3636V15.7303H59.108V24.9623C59.108 25.3748 59.331 25.5811 59.777 25.5811H60.8975V27.772H59.3421C58.5505 27.772 57.9373 27.5601 57.5024 27.1364C57.0676 26.7128 56.8502 26.1218 56.8502 25.3636ZM61.9973 15.7303H64.2551V18.3728H61.9973V15.7303ZM61.9973 19.4432H64.2551V27.772H61.9973V19.4432ZM70.815 19.209C71.8408 19.209 72.6492 19.5379 73.2401 20.1958C73.831 20.8536 74.1265 21.7734 74.1265 22.9553V27.772H71.8687V23.2898C71.8687 22.71 71.707 22.2529 71.3837 21.9184C71.0603 21.5839 70.6534 21.4167 70.1628 21.4167C69.6387 21.4167 69.1927 21.6062 68.8248 21.9853C68.4569 22.3532 68.2729 22.8438 68.2729 23.457V27.772H66.0151V19.4432H68.206V20.4466H68.2896C68.8806 19.6216 69.7224 19.209 70.815 19.209ZM79.58 19.1923C80.9626 19.1923 82.0552 19.6829 82.858 20.664C83.6608 21.6452 83.9841 22.8773 83.828 24.3602H77.5396C77.6065 24.8062 77.8183 25.1852 78.1751 25.4974C78.5431 25.7985 79.0058 25.9601 79.5633 25.9824C79.9535 26.0047 80.3159 25.9378 80.6504 25.7818C80.996 25.6145 81.2413 25.3971 81.3862 25.1295H83.7444C83.4768 26.0438 82.9639 26.7574 82.2057 27.2702C81.4476 27.772 80.5667 28.0228 79.5633 28.0228C78.2142 28.0228 77.1549 27.5992 76.3856 26.7518C75.6163 25.8933 75.2316 24.8452 75.2316 23.6076C75.2316 22.3588 75.6386 21.3107 76.4525 20.4634C77.2776 19.616 78.3201 19.1923 79.58 19.1923ZM80.8176 21.5839C80.472 21.3386 80.0539 21.216 79.5633 21.216C79.0727 21.216 78.6434 21.3442 78.2755 21.6006C77.9187 21.8459 77.679 22.1804 77.5563 22.6041H81.5368C81.4141 22.1693 81.1744 21.8292 80.8176 21.5839Z" fill="#F14B4B"/>
<path d="M28.1447 20.8009C29.3623 17.8142 29.5577 14.5086 28.7002 11.3992C27.8427 8.28992 25.9806 5.55165 23.4042 3.61127C20.8277 1.67089 17.6817 0.637432 14.4565 0.671981C11.2313 0.70653 8.10813 1.80715 5.57385 3.80228C3.03957 5.7974 1.23656 8.57493 0.445884 11.7019C-0.344794 14.8289 -0.0787146 18.1296 1.20264 21.0895C2.484 24.0495 4.70864 26.5023 7.52979 28.0657C10.3509 29.6291 13.6101 30.2153 16.7992 29.7327L15.8371 23.3746C14.0514 23.6448 12.2265 23.3166 10.6468 22.4412C9.06711 21.5657 7.82143 20.1923 7.10394 18.5349C6.38644 16.8775 6.23745 15.0292 6.68019 13.2783C7.12293 11.5274 8.13251 9.97209 9.55157 8.85493C10.9706 7.73776 12.7194 7.12148 14.5254 7.10213C16.3313 7.08279 18.0929 7.66147 19.5356 8.74798C20.9783 9.83449 22.0209 11.3678 22.5011 13.1088C22.9812 14.8499 22.8719 16.7009 22.19 18.3733L28.1447 20.8009Z" fill="#00B533"/>
<circle cx="14.6126" cy="15.2841" r="4.93177" fill="#FFCC19"/>
<path d="M16.2688 17.8072C17.2452 21.6794 18.6959 29.5551 18.6959 29.5551C18.6959 29.5551 20.1457 24.1429 21.2703 23.3899C22.3948 22.637 27.7288 22.3237 27.7288 22.3237L16.2688 17.8072Z" fill="#F14B4B"/>
</svg>
