<svg width="114" height="36" viewBox="0 0 114 36" fill="none" xmlns="http://www.w3.org/2000/svg">
<path d="M97.2964 29.927V28.8706C97.2964 28.0893 97.6347 27.539 98.1759 27.1099C98.7058 26.6807 99.3711 26.3726 100.025 26.0975C100.408 25.9324 100.735 25.7893 101.062 25.6243C101.716 25.3161 102.145 24.953 102.145 24.4028C102.145 23.5884 101.615 23.1923 100.6 23.1923C99.4839 23.1923 98.8975 23.7425 98.8975 24.7329V24.986H97.3866V24.6669C97.3866 22.8841 98.5367 21.9488 100.623 21.9488C101.288 21.9488 101.852 22.0478 102.303 22.2569C103.205 22.6751 103.678 23.4014 103.678 24.3257C103.678 25.1071 103.351 25.6573 102.833 26.0864C102.303 26.5046 101.671 26.8127 101.04 27.0879C100.713 27.2309 100.386 27.385 100.081 27.517C99.4951 27.8142 99.0779 28.1223 99.0216 28.5955H103.667V29.927H97.2964Z" fill="white"/>
<path d="M105.402 30.0591C104.68 30.0591 104.41 29.817 104.41 29.0907C104.41 28.3644 104.748 28.1333 105.402 28.1333C106.067 28.1333 106.394 28.3644 106.394 29.0907C106.394 29.784 106.067 30.0591 105.402 30.0591Z" fill="white"/>
<path d="M109.954 30.0591C107.789 30.0591 106.605 28.8156 106.605 26.3286V25.6793C106.605 23.2143 107.823 21.9048 109.954 21.9048C110.63 21.9048 111.205 22.0368 111.724 22.334C112.739 22.9062 113.314 24.0176 113.314 25.6683V26.3286C113.314 27.1539 113.167 27.8362 112.897 28.3974C112.333 29.4979 111.318 30.0591 109.954 30.0591ZM109.954 28.7386C111.16 28.7386 111.747 27.9132 111.747 26.2626V25.7343C111.747 24.1167 111.183 23.2143 109.954 23.2143C108.702 23.2143 108.161 24.1167 108.161 25.7343V26.2736C108.161 27.8802 108.702 28.7386 109.954 28.7386Z" fill="white"/>
<path d="M36.9182 25.7805V19.4886H38.4993V25.7153C38.4993 26.6933 38.7873 27.5028 39.3632 28.144C39.95 28.7742 40.7052 29.0894 41.6289 29.0894C42.5634 29.0894 43.3187 28.7742 43.8946 28.144C44.4705 27.5137 44.7585 26.7041 44.7585 25.7153V19.4886H46.3396V25.7805C46.3396 27.2366 45.8995 28.4102 45.0193 29.3013C44.15 30.1923 43.0198 30.6379 41.6289 30.6379C40.2271 30.6379 39.0915 30.1923 38.2222 29.3013C37.3529 28.3993 36.9182 27.2257 36.9182 25.7805ZM52.4837 22.113C53.516 22.113 54.3473 22.4498 54.9776 23.1236C55.6079 23.7864 55.923 24.6721 55.923 25.7805V30.4097H54.3745V26.0576C54.3745 25.3404 54.1735 24.7536 53.7714 24.2972C53.3802 23.8408 52.8423 23.6126 52.1577 23.6126C51.4188 23.6126 50.8157 23.8734 50.3484 24.395C49.892 24.9057 49.6638 25.5686 49.6638 26.3836V30.4097H48.1153V22.3412H49.6312V23.4333H49.6964C50.3919 22.5531 51.321 22.113 52.4837 22.113ZM57.754 18.6736H59.3025V21.0371H57.754V18.6736ZM57.754 22.3412H59.3025V30.4097H57.754V22.3412ZM69.1049 25.2752H67.4912C67.3173 24.7862 67.0076 24.3841 66.5621 24.069C66.1274 23.7538 65.6113 23.5963 65.0136 23.5963C64.1986 23.5963 63.5357 23.8625 63.025 24.395C62.5251 24.9274 62.2752 25.5849 62.2752 26.3673C62.2752 27.1497 62.5251 27.8125 63.025 28.3559C63.5357 28.8883 64.1986 29.1546 65.0136 29.1546C65.6004 29.1546 66.1166 28.997 66.5621 28.6819C67.0185 28.3667 67.3282 27.9484 67.4912 27.4268H69.1049C68.9093 28.3613 68.4366 29.1328 67.6868 29.7414C66.937 30.339 66.0405 30.6379 64.9973 30.6379C63.7367 30.6379 62.7098 30.2304 61.9166 29.4154C61.1233 28.5895 60.7267 27.5735 60.7267 26.3673C60.7267 25.1611 61.1233 24.1505 61.9166 23.3355C62.7098 22.5205 63.7367 22.113 64.9973 22.113C66.0405 22.113 66.937 22.4118 67.6868 23.0095C68.4366 23.5963 68.9093 24.3515 69.1049 25.2752ZM74.3513 30.6379C73.0582 30.6379 72.0041 30.2304 71.1891 29.4154C70.385 28.5895 69.9829 27.5735 69.9829 26.3673C69.9829 25.1611 70.385 24.1505 71.1891 23.3355C72.0041 22.5205 73.0582 22.113 74.3513 22.113C75.6227 22.113 76.6551 22.5205 77.4483 23.3355C78.2525 24.1505 78.6545 25.1611 78.6545 26.3673C78.6545 27.5735 78.2525 28.5895 77.4483 29.4154C76.6442 30.2304 75.6119 30.6379 74.3513 30.6379ZM74.3513 29.1546C75.1555 29.1546 75.8129 28.8829 76.3236 28.3396C76.8452 27.7962 77.106 27.1388 77.106 26.3673C77.106 25.5849 76.8452 24.9274 76.3236 24.395C75.8129 23.8625 75.1555 23.5963 74.3513 23.5963C73.5255 23.5963 72.8517 23.8625 72.3301 24.395C71.8085 24.9274 71.5477 25.5849 71.5477 26.3673C71.5477 27.1497 71.8085 27.8125 72.3301 28.3559C72.8517 28.8883 73.5255 29.1546 74.3513 29.1546ZM84.0575 22.3412H85.606V23.906H84.0738C83.324 23.906 82.7263 24.1396 82.2808 24.6069C81.8353 25.0741 81.6125 25.7153 81.6125 26.5303V30.4097H80.064V22.3412H81.5636V23.7267H81.6288C82.0526 22.803 82.8622 22.3412 84.0575 22.3412ZM91.2217 22.113C92.2541 22.113 93.0854 22.4498 93.7157 23.1236C94.3459 23.7864 94.6611 24.6721 94.6611 25.7805V30.4097H93.1126V26.0576C93.1126 25.3404 92.9115 24.7536 92.5095 24.2972C92.1183 23.8408 91.5803 23.6126 90.8957 23.6126C90.1568 23.6126 89.5537 23.8734 89.0864 24.395C88.63 24.9057 88.4018 25.5686 88.4018 26.3836V30.4097H86.8533V22.3412H88.3692V23.4333H88.4344C89.1299 22.5531 90.059 22.113 91.2217 22.113Z" fill="#D2BA81"/>
<path d="M42.5231 5.80139C43.5989 5.80139 44.5009 6.15999 45.2289 6.87719C45.957 7.58353 46.321 8.47459 46.321 9.5504C46.321 10.6479 45.9516 11.5499 45.2126 12.2562C44.4846 12.9517 43.5881 13.2994 42.5231 13.2994H39.3609V16.7224H37.0463V5.80139H42.5231ZM39.3609 11.0989H42.3438C42.8111 11.0989 43.1969 10.9576 43.5011 10.6751C43.8163 10.3926 43.9738 10.0177 43.9738 9.5504C43.9738 9.11573 43.8163 8.75713 43.5011 8.47459C43.186 8.19206 42.8002 8.05079 42.3438 8.05079H39.3609V11.0989ZM47.3854 16.7224V5.80139H51.982C53.6011 5.80139 54.9377 6.31212 55.9918 7.33359C57.0459 8.35506 57.5729 9.65363 57.5729 11.2293V11.2782C57.5729 12.8539 57.0459 14.1579 55.9918 15.1902C54.9377 16.2117 53.6011 16.7224 51.982 16.7224H47.3854ZM51.9494 8.05079H49.7V14.4567H51.9494C52.9165 14.4567 53.6989 14.1633 54.2966 13.5765C54.9051 12.9897 55.2094 12.2236 55.2094 11.2782V11.2293C55.2094 10.2839 54.9051 9.5178 54.2966 8.931C53.6989 8.34419 52.9165 8.05079 51.9494 8.05079ZM64.2359 5.80139C65.3117 5.80139 66.2137 6.15999 66.9417 6.87719C67.6698 7.58353 68.0338 8.47459 68.0338 9.5504C68.0338 10.6479 67.6644 11.5499 66.9254 12.2562C66.1974 12.9517 65.3009 13.2994 64.2359 13.2994H61.0737V16.7224H58.7591V5.80139H64.2359ZM61.0737 11.0989H64.0566C64.5239 11.0989 64.9097 10.9576 65.2139 10.6751C65.5291 10.3926 65.6866 10.0177 65.6866 9.5504C65.6866 9.11573 65.5291 8.75713 65.2139 8.47459C64.8988 8.19206 64.513 8.05079 64.0566 8.05079H61.0737V11.0989Z" fill="white"/>
<path fill-rule="evenodd" clip-rule="evenodd" d="M7.42216 5.24247C8.1221 5.55145 8.83759 5.90524 9.50798 6.29668C10.9539 7.40013 11.7882 8.65963 11.1986 9.99716C9.88897 12.9445 10.2738 13.9386 10.7728 15.2275L10.776 15.2358C10.9539 15.6928 11.143 16.1832 11.2765 16.8074C11.4361 17.5003 11.5549 18.1829 11.672 18.8554C11.6774 18.8861 11.6827 18.9168 11.688 18.9474C11.9772 20.5747 12.2553 22.1352 12.9227 23.6845L13.0673 25.5459C12.5 26.9057 13.1562 29.5473 14.0461 30.2606C14.5688 30.673 15.3697 30.8625 16.1816 30.8514C16.9825 30.8625 17.7944 30.6842 18.3172 30.2606C19.1959 29.5584 19.8633 26.9057 19.296 25.5459L19.4517 23.6845C20.1302 22.1352 20.4083 20.5747 20.6864 18.9474C20.6919 18.9154 20.6975 18.8833 20.7031 18.8513C20.82 18.1801 20.9387 17.4983 21.0979 16.7962C21.2425 16.172 21.4316 15.6816 21.6096 15.2358C22.1212 13.9317 22.4994 12.9509 21.1758 9.98601C20.8087 9.17235 20.9088 8.42557 21.3092 7.74566C22.3336 6.76318 23.9066 5.90127 25.4077 5.23926C29.8805 8.17206 32.8346 13.2302 32.8346 18.9783C32.8346 28.0452 25.4844 35.3955 16.4174 35.3955C7.35042 35.3955 0.000183105 28.0452 0.000183105 18.9783C0.000183105 13.2323 2.9521 8.17576 7.42216 5.24247Z" fill="white"/>
<path fill-rule="evenodd" clip-rule="evenodd" d="M16.3709 0.442383C16.1493 2.58799 15.3956 6.20966 15.0115 8.55309C14.5829 11.1552 13.1053 15.4769 16.0901 15.7508C16.1788 15.7508 16.2527 15.766 16.3266 15.766H16.3857C16.4596 15.766 16.5482 15.766 16.6221 15.7508C19.607 15.4769 18.1293 11.1552 17.7008 8.55309C17.3314 6.20966 16.5925 2.58799 16.3709 0.442383Z" fill="#BDA16F"/>
<path fill-rule="evenodd" clip-rule="evenodd" d="M16.3709 0.442383C16.1493 2.58799 15.3956 6.20966 15.0115 8.55309C14.5829 11.1552 13.1053 15.4769 16.0901 15.7508C16.1788 15.7508 16.2527 15.766 16.3266 15.766H16.3857C16.4596 15.766 16.5482 15.766 16.6221 15.7508C19.607 15.4769 18.1293 11.1552 17.7008 8.55309C17.3314 6.20966 16.5925 2.58799 16.3709 0.442383Z" fill="url(#paint0_linear_281_2503)"/>
<path d="M39.0234 33.8912V33.9049C39.1726 33.9658 39.2882 34.0617 39.3704 34.1925C39.4556 34.3204 39.4982 34.468 39.4982 34.6354C39.4982 34.8789 39.4145 35.0843 39.2471 35.2517C39.0797 35.4161 38.8697 35.4982 38.6171 35.4982H37.0056V32.4395H38.5578C38.7952 32.4395 38.9945 32.5155 39.1558 32.6677C39.3202 32.8169 39.4024 33.0101 39.4024 33.2475C39.4024 33.5458 39.2761 33.7604 39.0234 33.8912ZM38.5441 32.7819H37.3571V33.7634H38.5441C38.6871 33.7634 38.8073 33.7177 38.9047 33.6264C39.0021 33.5321 39.0508 33.4149 39.0508 33.2749C39.0508 33.1319 39.0021 33.0147 38.9047 32.9234C38.8073 32.829 38.6871 32.7819 38.5441 32.7819ZM37.3571 35.1513H38.6171C38.7693 35.1513 38.8941 35.1026 38.9915 35.0052C39.0919 34.9078 39.1421 34.7845 39.1421 34.6354C39.1421 34.4802 39.0904 34.3523 38.9869 34.2519C38.8865 34.1515 38.7586 34.1012 38.6034 34.1012H37.3571V35.1513Z" fill="#A8A8A8"/>
<path d="M42.409 32.4395H42.829L41.5416 34.1697V35.4982H41.19V34.1834L39.9072 32.4395H40.3363L41.3727 33.8547L42.409 32.4395Z" fill="#A8A8A8"/>
<path d="M46.5164 32.4395C46.8178 32.4395 47.0643 32.5338 47.256 32.7225C47.4478 32.9082 47.5436 33.1364 47.5436 33.4073C47.5436 33.6782 47.4463 33.9064 47.2515 34.0921C47.0597 34.2747 46.8132 34.366 46.5119 34.366H45.4755V35.4982H45.124V32.4395H46.5164ZM45.4755 34.0328H46.5073C46.7112 34.0328 46.8756 33.9734 47.0004 33.8547C47.1252 33.736 47.1876 33.5869 47.1876 33.4073C47.1876 33.2308 47.1252 33.0832 47.0004 32.9645C46.8756 32.8427 46.7112 32.7819 46.5073 32.7819H45.4755V34.0328Z" fill="#A8A8A8"/>
<path d="M48.4424 35.4937V32.4395H49.6386C50.0738 32.4395 50.4345 32.584 50.7206 32.8732C51.0097 33.1593 51.1543 33.5214 51.1543 33.9597V33.9734C51.1543 34.4117 51.0097 34.7754 50.7206 35.0645C50.4345 35.3506 50.0738 35.4937 49.6386 35.4937H48.4424ZM49.634 32.7819H48.794V35.1513H49.634C49.9718 35.1513 50.2503 35.0417 50.4695 34.8226C50.6916 34.6004 50.8027 34.3173 50.8027 33.9734V33.9597C50.8027 33.6158 50.6916 33.3343 50.4695 33.1151C50.2503 32.8929 49.9718 32.7819 49.634 32.7819Z" fill="#A8A8A8"/>
<path d="M53.4832 32.4395C53.7845 32.4395 54.0311 32.5338 54.2228 32.7225C54.4146 32.9082 54.5104 33.1364 54.5104 33.4073C54.5104 33.6782 54.413 33.9064 54.2183 34.0921C54.0265 34.2747 53.78 34.366 53.4787 34.366H52.4423V35.4982H52.0908V32.4395H53.4832ZM52.4423 34.0328H53.4741C53.678 34.0328 53.8424 33.9734 53.9672 33.8547C54.0919 33.736 54.1543 33.5869 54.1543 33.4073C54.1543 33.2308 54.0919 33.0832 53.9672 32.9645C53.8424 32.8427 53.678 32.7819 53.4741 32.7819H52.4423V34.0328Z" fill="#A8A8A8"/>
<path d="M56.818 34.2245V32.4395H57.1695V34.2062C57.1695 34.5045 57.2578 34.748 57.4343 34.9367C57.6108 35.1224 57.8391 35.2152 58.1191 35.2152C58.3991 35.2152 58.6259 35.1224 58.7994 34.9367C58.9759 34.751 59.0641 34.5076 59.0641 34.2062V32.4395H59.4157V34.2245C59.4157 34.6293 59.2939 34.9534 59.0504 35.1969C58.81 35.4374 58.498 35.5576 58.1146 35.5576C57.7311 35.5576 57.4191 35.4358 57.1787 35.1924C56.9382 34.9458 56.818 34.6232 56.818 34.2245Z" fill="#A8A8A8"/>
<path d="M62.8277 34.9047V32.4395H63.1747V35.4982H62.8277L60.8372 32.8914V35.4982H60.4857V32.4395H60.9194L62.8277 34.9047Z" fill="#A8A8A8"/>
<path d="M64.3391 35.4982V32.4395H64.6906V35.4982H64.3391Z" fill="#A8A8A8"/>
<path d="M66.9872 35.0828L68.124 32.4395H68.5029L67.1744 35.4982H66.7864L65.4533 32.4395H65.8459L66.9872 35.0828Z" fill="#A8A8A8"/>
<path d="M71.4831 35.4982H69.2506V32.4395H71.4831V32.7819H69.6021V33.7497H71.3461V34.0921H69.6021V35.1558H71.4831V35.4982Z" fill="#A8A8A8"/>
<path d="M72.8269 35.4982H72.4754V32.4395H73.9865C74.2818 32.4395 74.5192 32.5186 74.6987 32.6769C74.8783 32.8351 74.9681 33.0406 74.9681 33.2932C74.9681 33.5884 74.8524 33.8106 74.6211 33.9597V33.9688C74.8768 34.0084 75.0046 34.1773 75.0046 34.4756V35.4982H74.6576V34.5395C74.6576 34.3752 74.5694 34.293 74.3929 34.293H72.8269V35.4982ZM72.8269 32.7819V33.9551H73.9683C74.1631 33.9551 74.3183 33.9004 74.4339 33.7908C74.5526 33.6812 74.612 33.5412 74.612 33.3708C74.612 33.2003 74.5526 33.0603 74.4339 32.9508C74.3152 32.8382 74.1615 32.7819 73.9728 32.7819H72.8269Z" fill="#A8A8A8"/>
<path d="M76.7227 32.4395H78.2064V32.7819H76.7409C76.6009 32.7819 76.4883 32.8245 76.4031 32.9097C76.3209 32.9919 76.2798 33.0908 76.2798 33.2064C76.2798 33.3008 76.3088 33.3875 76.3666 33.4667C76.4275 33.5427 76.5127 33.5945 76.6222 33.6219L77.7636 33.9049C77.9705 33.9567 78.1288 34.0571 78.2384 34.2062C78.3479 34.3523 78.4027 34.5121 78.4027 34.6856C78.4027 34.9047 78.3266 35.095 78.1745 35.2563C78.0223 35.4176 77.8138 35.4982 77.549 35.4982H76.0014V35.1558H77.5353C77.6844 35.1558 77.8031 35.1102 77.8914 35.0189C77.9797 34.9245 78.0238 34.8165 78.0238 34.6947C78.0238 34.5973 77.9918 34.506 77.9279 34.4208C77.864 34.3356 77.7742 34.2778 77.6586 34.2473L76.5127 33.9643C76.3148 33.9156 76.1627 33.8212 76.0561 33.6812C75.9527 33.5412 75.9009 33.386 75.9009 33.2156C75.9009 33.0086 75.974 32.8275 76.1201 32.6723C76.2692 32.5171 76.4701 32.4395 76.7227 32.4395Z" fill="#A8A8A8"/>
<path d="M79.3396 35.4982V32.4395H79.6912V35.4982H79.3396Z" fill="#A8A8A8"/>
<path d="M80.5344 32.4395H83.1595V32.7819H82.0181V35.4982H81.6712V32.7819H80.5344V32.4395Z" fill="#A8A8A8"/>
<path d="M86.0954 32.4395H86.5154L85.228 34.1697V35.4982H84.8764V34.1834L83.5936 32.4395H84.0227L85.0591 33.8547L86.0954 32.4395Z" fill="#A8A8A8"/>
<defs>
<linearGradient id="paint0_linear_281_2503" x1="16.3637" y1="0.442383" x2="16.3637" y2="15.7651" gradientUnits="userSpaceOnUse">
<stop stop-color="#EDD999"/>
<stop offset="1" stop-color="#B09263"/>
</linearGradient>
</defs>
</svg>
