<svg width="91" height="30" viewBox="0 0 91 30" fill="none" xmlns="http://www.w3.org/2000/svg">
<path d="M43.3399 0.812459C44.4439 0.812459 45.362 1.16167 46.0942 1.86009C46.8264 2.55852 47.1925 3.43154 47.1925 4.47918C47.1925 5.53808 46.8264 6.41111 46.0942 7.09826C45.362 7.77416 44.4439 8.1121 43.3399 8.1121H39.6394V12.1337H38.0004V0.812459H43.3399ZM39.6394 6.54065H43.2892C43.9539 6.54065 44.4946 6.34915 44.9114 5.96614C45.3282 5.58314 45.5366 5.08748 45.5366 4.47918C45.5366 3.88214 45.3225 3.39212 44.8945 3.00911C44.4777 2.61484 43.9426 2.4177 43.2892 2.4177H39.6394V6.54065ZM49.3368 12.1168V0.812459H53.8821C55.5043 0.812459 56.8448 1.34754 57.9037 2.4177C58.9626 3.4766 59.4921 4.81712 59.4921 6.43927V6.48996C59.4921 8.1121 58.9626 9.45826 57.9037 10.5284C56.8448 11.5873 55.5043 12.1168 53.8821 12.1168H49.3368ZM53.8652 2.4177H50.9758V10.5115H53.8652C55.0255 10.5115 55.9774 10.1398 56.7209 9.3963C57.4644 8.64155 57.8361 7.67277 57.8361 6.48996V6.43927C57.8361 5.25646 57.4644 4.29331 56.7209 3.54983C55.9774 2.79508 55.0255 2.4177 53.8652 2.4177ZM67.1348 0.812459C68.2388 0.812459 69.1568 1.16167 69.8891 1.86009C70.6213 2.55852 70.9874 3.43154 70.9874 4.47918C70.9874 5.53808 70.6213 6.41111 69.8891 7.09826C69.1568 7.77416 68.2388 8.1121 67.1348 8.1121H63.4343V12.1337H61.7952V0.812459H67.1348ZM63.4343 6.54065H67.0841C67.7487 6.54065 68.2894 6.34915 68.7062 5.96614C69.123 5.58314 69.3314 5.08748 69.3314 4.47918C69.3314 3.88214 69.1174 3.39212 68.6893 3.00911C68.2725 2.61484 67.7375 2.4177 67.0841 2.4177H63.4343V6.54065Z" fill="white"/>
<path d="M36.9221 15.8868H47.3906V18.3271H43.4119V27.7346H40.8832V18.3271H36.9221V15.8868ZM53.3045 20.0601V18.9284H55.6741V27.7346H53.3045V26.5675H53.2161C52.9332 26.9919 52.5442 27.3338 52.049 27.5932C51.5539 27.8525 50.9939 27.9881 50.3691 27.9999C49.1667 27.9999 48.1646 27.5696 47.363 26.709C46.5731 25.8366 46.1782 24.7167 46.1782 23.3492C46.1782 21.9817 46.5672 20.8558 47.3453 19.9717C48.1351 19.0875 49.149 18.6513 50.3868 18.6631C50.9998 18.6631 51.5539 18.7928 52.049 19.0521C52.5442 19.3115 52.9332 19.6475 53.2161 20.0601H53.3045ZM49.2374 25.0644C49.6854 25.5124 50.2571 25.7364 50.9527 25.7364C51.6482 25.7364 52.2141 25.5065 52.6503 25.0468C53.0865 24.5752 53.3045 24.0035 53.3045 23.3315C53.3045 22.6477 53.0806 22.076 52.6326 21.6162C52.1964 21.1565 51.6364 20.9266 50.9527 20.9266C50.2571 20.9266 49.6854 21.1565 49.2374 21.6162C48.8012 22.0642 48.5831 22.6359 48.5831 23.3315C48.5831 24.027 48.8012 24.6047 49.2374 25.0644ZM57.4466 25.1882V15.0027H59.8338V24.7638C59.8338 25.2 60.0696 25.4181 60.5411 25.4181H61.7259V27.7346H60.0814C59.2444 27.7346 58.596 27.5106 58.1362 27.0627C57.6765 26.6147 57.4466 25.9899 57.4466 25.1882ZM66.7836 18.6631C68.2454 18.6631 69.4007 19.1818 70.2495 20.2192C71.0983 21.2567 71.4402 22.5593 71.2751 24.1272H64.6262C64.697 24.5988 64.921 24.9996 65.2982 25.3297C65.6872 25.648 66.1765 25.8189 66.7659 25.8425C67.1785 25.8661 67.5617 25.7954 67.9153 25.6303C68.2808 25.4535 68.5401 25.2236 68.6934 24.9407H71.1867C70.9038 25.9074 70.3615 26.6618 69.5599 27.2041C68.7582 27.7346 67.8269 27.9999 66.7659 27.9999C65.3395 27.9999 64.2195 27.5519 63.4061 26.6559C62.5927 25.7482 62.186 24.6401 62.186 23.3315C62.186 22.0111 62.6163 20.903 63.4768 20.007C64.3492 19.1111 65.4515 18.6631 66.7836 18.6631ZM68.0922 21.1918C67.7267 20.9325 67.2846 20.8028 66.7659 20.8028C66.2472 20.8028 65.7933 20.9384 65.4043 21.2095C65.0271 21.4689 64.7736 21.8225 64.6439 22.2705H68.8525C68.7229 21.8107 68.4694 21.4512 68.0922 21.1918ZM77.6171 18.6808C78.7017 18.6808 79.5563 19.0286 80.1812 19.7241C80.806 20.4196 81.1184 21.3922 81.1184 22.6418V27.7346H78.7311V22.9955C78.7311 22.3825 78.5602 21.8991 78.2183 21.5455C77.8764 21.1918 77.4461 21.015 76.9274 21.015C76.3734 21.015 75.9018 21.2154 75.5128 21.6162C75.1237 22.0052 74.9292 22.524 74.9292 23.1723V27.7346H72.542V18.9284H74.8585V19.9894H74.9469C75.5717 19.117 76.4618 18.6808 77.6171 18.6808ZM89.2397 18.9284V21.2272H85.6146V24.7461C85.6146 24.9583 85.6794 25.1234 85.8091 25.2413C85.9388 25.3592 86.1097 25.4181 86.3219 25.4181H89.2397V27.7346H85.8799C85.0664 27.7346 84.418 27.5047 83.9347 27.045C83.4631 26.5734 83.2274 25.9427 83.2274 25.1529V21.2272H81.9895V18.9284H83.2274V15.8868H85.6146V18.9284H89.2397Z" fill="#42BDFF"/>
<g clip-path="url(#clip0_281_2411)">
<rect x="-6.10352e-05" y="0.142944" width="29.7235" height="29.7235" rx="14.8618" fill="#5856FF"/>
<path d="M15.0095 -1.42346L26.3658 18.9395H3.65326L15.0095 -1.42346Z" fill="#42BDFF"/>
<ellipse cx="15.0109" cy="19.5924" rx="11.6173" ry="3.78542" fill="white"/>
</g>
<defs>
<clipPath id="clip0_281_2411">
<rect x="-6.10352e-05" y="0.142944" width="29.7235" height="29.7235" rx="14.8618" fill="white"/>
</clipPath>
</defs>
</svg>
