<svg width="88" height="32" viewBox="0 0 88 32" fill="none" xmlns="http://www.w3.org/2000/svg">
<path d="M39.7702 3.82556C40.7959 3.82556 41.649 4.15002 42.3293 4.79895C43.0096 5.44787 43.3498 6.25903 43.3498 7.23242C43.3498 8.21627 43.0096 9.02742 42.3293 9.66588C41.649 10.2939 40.7959 10.6079 39.7702 10.6079H36.332V14.3444H34.8091V3.82556H39.7702ZM36.332 9.14779H39.7231C40.3406 9.14779 40.843 8.96986 41.2303 8.614C41.6176 8.25813 41.8112 7.79761 41.8112 7.23242C41.8112 6.67769 41.6123 6.2224 41.2146 5.86653C40.8273 5.50021 40.3302 5.31704 39.7231 5.31704H36.332V9.14779Z" fill="white"/>
<path d="M45.342 14.3287V3.82556H49.5653C51.0725 3.82556 52.318 4.32272 53.3018 5.31704C54.2857 6.30089 54.7776 7.54641 54.7776 9.05359V9.10069C54.7776 10.6079 54.2857 11.8586 53.3018 12.8529C52.318 13.8368 51.0725 14.3287 49.5653 14.3287H45.342ZM49.5496 5.31704H46.8649V12.8372H49.5496C50.6276 12.8372 51.5121 12.4918 52.2029 11.8011C52.8936 11.0998 53.239 10.1997 53.239 9.10069V9.05359C53.239 7.95461 52.8936 7.05972 52.2029 6.36893C51.5121 5.66767 50.6276 5.31704 49.5496 5.31704Z" fill="white"/>
<path d="M61.8787 3.82556C62.9044 3.82556 63.7574 4.15002 64.4378 4.79895C65.1181 5.44787 65.4583 6.25903 65.4583 7.23242C65.4583 8.21627 65.1181 9.02742 64.4378 9.66588C63.7574 10.2939 62.9044 10.6079 61.8787 10.6079H58.4405V14.3444H56.9176V3.82556H61.8787ZM58.4405 9.14779H61.8316C62.4491 9.14779 62.9515 8.96986 63.3388 8.614C63.726 8.25813 63.9197 7.79761 63.9197 7.23242C63.9197 6.67769 63.7208 6.2224 63.3231 5.86653C62.9358 5.50021 62.4387 5.31704 61.8316 5.31704H58.4405V9.14779Z" fill="white"/>
<path d="M38.0789 17.3654H43.7473V19.6328H38.2432C37.9585 19.6328 37.7394 19.7095 37.586 19.8628C37.4327 20.0162 37.356 20.2024 37.356 20.4214C37.356 20.6076 37.4163 20.7774 37.5368 20.9308C37.6572 21.0841 37.827 21.1882 38.0461 21.2429L41.9729 22.163C42.7834 22.3492 43.4023 22.7271 43.8295 23.2967C44.2566 23.8553 44.4702 24.4851 44.4702 25.1861C44.4702 26.0514 44.1745 26.8017 43.583 27.437C43.0025 28.0614 42.1919 28.3736 41.1514 28.3736H35.253V26.0898H41.0692C41.343 26.0898 41.5621 26.0022 41.7264 25.8269C41.9017 25.6516 41.9893 25.449 41.9893 25.219C41.9893 24.7699 41.7428 24.4906 41.2499 24.3811L37.3067 23.4445C36.5071 23.2474 35.8938 22.875 35.4666 22.3273C35.0394 21.7687 34.8258 21.1498 34.8258 20.4707C34.8258 19.6273 35.1106 18.8989 35.6802 18.2855C36.2607 17.6721 37.0603 17.3654 38.0789 17.3654Z" fill="#00E0FF"/>
<path d="M53.7611 23.2967H51.4445C51.3131 22.9352 51.083 22.645 50.7544 22.4259C50.4368 22.1959 50.0589 22.0809 49.6208 22.0809C48.9855 22.0809 48.4761 22.2944 48.0928 22.7216C47.7094 23.1379 47.5177 23.6581 47.5177 24.2825C47.5177 24.8959 47.7094 25.4162 48.0928 25.8433C48.4761 26.2596 48.9855 26.4677 49.6208 26.4677C50.048 26.4677 50.4258 26.3581 50.7544 26.1391C51.083 25.9091 51.3131 25.6133 51.4445 25.2519H53.7611C53.5859 26.2486 53.1204 27.0592 52.3646 27.6835C51.6198 28.3078 50.6997 28.62 49.6043 28.62C48.3118 28.62 47.2713 28.2093 46.4826 27.3878C45.694 26.5663 45.2997 25.5312 45.2997 24.2825C45.2997 23.0338 45.694 21.9987 46.4826 21.1772C47.2713 20.3557 48.3118 19.945 49.6043 19.945C50.7106 19.945 51.6362 20.2571 52.381 20.8815C53.1368 21.4949 53.5968 22.2999 53.7611 23.2967Z" fill="#00E0FF"/>
<path d="M59.5569 19.9614C60.5647 19.9614 61.3588 20.2845 61.9393 20.9308C62.5198 21.577 62.8101 22.4807 62.8101 23.6417V28.3736H60.592V23.9703C60.592 23.4007 60.4332 22.9516 60.1156 22.623C59.7979 22.2944 59.3981 22.1301 58.9162 22.1301C58.4014 22.1301 57.9632 22.3164 57.6018 22.6888C57.2403 23.0502 57.0596 23.5322 57.0596 24.1346V28.3736H54.8415V16.5439H57.0596V21.1772H57.1253C57.7058 20.3667 58.5164 19.9614 59.5569 19.9614Z" fill="#00E0FF"/>
<path d="M71.4864 27.3878C70.6759 28.2093 69.6134 28.62 68.299 28.62C66.9846 28.62 65.9221 28.2093 65.1116 27.3878C64.301 26.5663 63.8958 25.5312 63.8958 24.2825C63.8958 23.0448 64.301 22.0151 65.1116 21.1936C65.9221 20.3612 66.9846 19.945 68.299 19.945C69.6134 19.945 70.6759 20.3612 71.4864 21.1936C72.297 22.0151 72.7022 23.0448 72.7022 24.2825C72.7022 25.5312 72.297 26.5663 71.4864 27.3878ZM68.299 26.4677C68.9343 26.4677 69.4546 26.2596 69.8599 25.8433C70.2761 25.4162 70.4842 24.8959 70.4842 24.2825C70.4842 23.6581 70.2816 23.1379 69.8763 22.7216C69.471 22.2944 68.9452 22.0809 68.299 22.0809C67.6528 22.0809 67.127 22.2944 66.7217 22.7216C66.3164 23.1379 66.1138 23.6581 66.1138 24.2825C66.1138 24.9068 66.3164 25.4271 66.7217 25.8433C67.127 26.2596 67.6528 26.4677 68.299 26.4677Z" fill="#00E0FF"/>
<path d="M81.0653 27.3878C80.2547 28.2093 79.1922 28.62 77.8778 28.62C76.5634 28.62 75.501 28.2093 74.6904 27.3878C73.8799 26.5663 73.4746 25.5312 73.4746 24.2825C73.4746 23.0448 73.8799 22.0151 74.6904 21.1936C75.501 20.3612 76.5634 19.945 77.8778 19.945C79.1922 19.945 80.2547 20.3612 81.0653 21.1936C81.8758 22.0151 82.2811 23.0448 82.2811 24.2825C82.2811 25.5312 81.8758 26.5663 81.0653 27.3878ZM77.8778 26.4677C78.5131 26.4677 79.0334 26.2596 79.4387 25.8433C79.8549 25.4162 80.063 24.8959 80.063 24.2825C80.063 23.6581 79.8604 23.1379 79.4551 22.7216C79.0498 22.2944 78.5241 22.0809 77.8778 22.0809C77.2316 22.0809 76.7058 22.2944 76.3005 22.7216C75.8953 23.1379 75.6926 23.6581 75.6926 24.2825C75.6926 24.9068 75.8953 25.4271 76.3005 25.8433C76.7058 26.2596 77.2316 26.4677 77.8778 26.4677Z" fill="#00E0FF"/>
<path d="M83.3992 26.0076V16.5439H85.6173V25.6133C85.6173 26.0186 85.8363 26.2212 86.2745 26.2212H87.3753V28.3736H85.8473C85.0696 28.3736 84.4672 28.1654 84.04 27.7492C83.6128 27.333 83.3992 26.7525 83.3992 26.0076Z" fill="#00E0FF"/>
<path d="M30.8147 16C30.8147 24.5092 23.9166 31.4073 15.4073 31.4073C8.26898 31.4073 2.26445 26.5528 0.51501 19.9651H6.30268C6.82981 21.1738 7.59057 22.2572 8.52791 23.1582C8.8954 22.5427 9.08207 21.8125 9.01168 21.0472C8.57151 20.9062 8.25287 20.4936 8.25287 20.0065C8.25287 19.4031 8.74206 18.9139 9.34552 18.9139C9.94897 18.9139 10.4382 19.4031 10.4382 20.0065C10.4382 20.4701 10.1494 20.8663 9.74195 21.025C9.82095 21.9836 9.56574 22.8951 9.07991 23.6508C10.2363 24.6083 11.6134 25.3086 13.1235 25.6641C14.2101 24.8594 14.9389 23.5819 14.9812 22.1066L15.0125 21.014C14.6191 20.8487 14.3429 20.4597 14.3429 20.0063C14.3429 19.4028 14.8321 18.9136 15.4355 18.9136C16.039 18.9136 16.5282 19.4028 16.5282 20.0063C16.5282 20.5041 16.1953 20.9241 15.74 21.0559L15.7093 22.1274C15.6671 23.6026 15.0325 24.907 14.0503 25.8361C14.494 25.8967 14.947 25.928 15.4073 25.928C16.545 25.928 17.6379 25.7367 18.6558 25.3844C19.9953 24.3738 20.8005 22.7674 20.7742 21.0544C20.322 20.9206 19.9921 20.5021 19.9921 20.0065C19.9921 19.4031 20.4813 18.9139 21.0848 18.9139C21.6882 18.9139 22.1774 19.4031 22.1774 20.0065C22.1774 20.4622 21.8985 20.8526 21.5022 21.0166C21.5277 22.3032 21.1404 23.5381 20.4375 24.5612C22.8564 23.137 24.6186 20.7168 25.1606 17.8645H18.6153V21.2372C19.0342 21.3901 19.3333 21.7921 19.3333 22.264C19.3333 22.8674 18.8441 23.3566 18.2406 23.3566C17.6372 23.3566 17.148 22.8674 17.148 22.264C17.148 21.7844 17.457 21.3769 17.8868 21.2299V17.8645H12.9037V20.9691C13.3226 21.122 13.6217 21.524 13.6217 21.9958C13.6217 22.5993 13.1325 23.0885 12.5291 23.0885C11.9256 23.0885 11.4364 22.5993 11.4364 21.9958C11.4364 21.5162 11.7454 21.1088 12.1753 20.9617L12.1753 17.8645H5.65407L5.65439 17.8662H0.11188C0.0380142 17.2545 0 16.6317 0 16C0 7.49075 6.89809 0.592651 15.4073 0.592651C22.7391 0.592651 28.8748 5.7138 30.4324 12.5742H24.7285C24.1846 11.0947 23.2985 9.7806 22.1662 8.72774C21.6075 9.41152 21.2978 10.3022 21.3831 11.2473C21.8227 11.3887 22.1408 11.801 22.1408 12.2876C22.1408 12.8911 21.6516 13.3803 21.0482 13.3803C20.4447 13.3803 19.9555 12.8911 19.9555 12.2876C19.9555 11.8236 20.2448 11.4272 20.6528 11.2687C20.5612 10.1353 20.9399 9.06909 21.6147 8.25133C20.6171 7.45112 19.4617 6.83959 18.2026 6.47084C16.5693 7.41542 15.5025 9.22 15.6 11.2271C16.0767 11.3446 16.4302 11.775 16.4302 12.288C16.4302 12.8915 15.941 13.3807 15.3376 13.3807C14.7341 13.3807 14.2449 12.8915 14.2449 12.288C14.2449 11.8502 14.5024 11.4725 14.8742 11.2982C14.7621 9.2536 15.7105 7.38973 17.2349 6.23977C16.6425 6.12954 16.0316 6.07191 15.4073 6.07191C14.2814 6.07191 13.1992 6.25935 12.1903 6.60472C10.5822 7.57567 9.59051 9.3427 9.61968 11.2407C10.0718 11.3745 10.4017 11.793 10.4017 12.2885C10.4017 12.892 9.91251 13.3812 9.30906 13.3812C8.70561 13.3812 8.21641 12.892 8.21641 12.2885C8.21641 11.8329 8.49531 11.4424 8.89171 11.2784C8.86563 9.9663 9.26896 8.708 9.99848 7.67328C7.62911 9.21552 5.95891 11.7417 5.56726 14.6723H12.1544L12.1544 11.1392C11.7355 10.9863 11.4365 10.5844 11.4365 10.1126C11.4365 9.5091 11.9257 9.01991 12.5291 9.01991C13.1326 9.01991 13.6218 9.5091 13.6218 10.1126C13.6218 10.5922 13.3127 10.9997 12.8828 11.1467L12.8828 14.6723H17.8659V10.967C17.447 10.8141 17.1479 10.4121 17.1479 9.94029C17.1479 9.33683 17.6371 8.84764 18.2405 8.84764C18.844 8.84764 19.3332 9.33683 19.3332 9.94029C19.3332 10.4199 19.0241 10.8274 18.5943 10.9744V14.6723H19.5337V14.673H30.7583C30.7956 15.1104 30.8147 15.553 30.8147 16Z" fill="#00E0FF"/>
<circle cx="21.0261" cy="12.3118" r="0.521615" fill="#000C7A"/>
<circle cx="0.586817" cy="0.586817" r="0.586817" transform="matrix(1 0 0 -1 20.5083 20.5782)" fill="#000C7A"/>
<circle cx="18.2501" cy="9.93496" r="0.586817" fill="#000C7A"/>
<circle cx="0.586817" cy="0.586817" r="0.586817" transform="matrix(1 0 0 -1 17.6415 22.9006)" fill="#000C7A"/>
<circle cx="15.3201" cy="12.2926" r="0.586817" fill="#000C7A"/>
<circle cx="0.586817" cy="0.586817" r="0.586817" transform="matrix(1 0 0 -1 14.8558 20.5782)" fill="#000C7A"/>
<circle cx="9.31521" cy="12.2926" r="0.586817" fill="#000C7A"/>
<circle cx="0.586817" cy="0.586817" r="0.586817" transform="matrix(1 0 0 -1 8.75537 20.5782)" fill="#000C7A"/>
<circle cx="12.5418" cy="10.1033" r="0.586817" fill="#000C7A"/>
<circle cx="0.586817" cy="0.586817" r="0.586817" transform="matrix(1 0 0 -1 11.9489 22.5999)" fill="#000C7A"/>
</svg>
