<svg width="111" height="31" viewBox="0 0 111 31" fill="none" xmlns="http://www.w3.org/2000/svg">
<g clip-path="url(#clip0_281_2171)">
<rect y="0.725586" width="28.5489" height="28.5489" rx="14.2744" fill="#00928A"/>
<rect x="-4.75696" y="-6.01526" width="33.307" height="21.0152" fill="#00AFA6"/>
<circle cx="14.2744" cy="14.9996" r="7.93025" fill="#FFC700"/>
<path d="M22.2046 14.9996C22.2046 12.8964 21.3691 10.8793 19.8819 9.39205C18.3947 7.90484 16.3776 7.06934 14.2744 7.06934C12.1711 7.06934 10.154 7.90484 8.66683 9.39205C7.17962 10.8793 6.34412 12.8963 6.34412 14.9996L14.2744 14.9996H22.2046Z" fill="#FAFFFA"/>
</g>
<path d="M39.4302 2.73232C40.4322 2.73232 41.2654 3.04926 41.93 3.68313C42.5945 4.31701 42.9268 5.10935 42.9268 6.06016C42.9268 7.02119 42.5945 7.81353 41.93 8.43718C41.2654 9.05061 40.4322 9.35732 39.4302 9.35732H36.0717V13.0072H34.5842V2.73232H39.4302ZM36.0717 7.9311H39.3842C39.9874 7.9311 40.4782 7.7573 40.8565 7.40969C41.2347 7.06209 41.4239 6.61224 41.4239 6.06016C41.4239 5.5183 41.2296 5.07356 40.8411 4.72596C40.4628 4.36812 39.9772 4.18921 39.3842 4.18921H36.0717V7.9311ZM44.8728 12.9919V2.73232H48.9981C50.4704 2.73232 51.687 3.21795 52.648 4.18921C53.609 5.15024 54.0896 6.36687 54.0896 7.83909V7.8851C54.0896 9.35732 53.609 10.5791 52.648 11.5503C51.687 12.5113 50.4704 12.9919 48.9981 12.9919H44.8728ZM48.9828 4.18921H46.3604V11.535H48.9828C50.0358 11.535 50.8998 11.1976 51.5745 10.5228C52.2493 9.83784 52.5867 8.95859 52.5867 7.8851V7.83909C52.5867 6.7656 52.2493 5.89146 51.5745 5.2167C50.8998 4.5317 50.0358 4.18921 48.9828 4.18921ZM61.0259 2.73232C62.0279 2.73232 62.8611 3.04926 63.5257 3.68313C64.1902 4.31701 64.5225 5.10935 64.5225 6.06016C64.5225 7.02119 64.1902 7.81353 63.5257 8.43718C62.8611 9.05061 62.0279 9.35732 61.0259 9.35732H57.6674V13.0072H56.1799V2.73232H61.0259ZM57.6674 7.9311H60.9799C61.5831 7.9311 62.0739 7.7573 62.4522 7.40969C62.8304 7.06209 63.0196 6.61224 63.0196 6.06016C63.0196 5.5183 62.8253 5.07356 62.4368 4.72596C62.0585 4.36812 61.5729 4.18921 60.9799 4.18921H57.6674V7.9311Z" fill="white"/>
<path d="M34.0545 22.6532V16.5065H36.3494V22.6211C36.3494 23.4129 36.5688 24.0655 37.0075 24.5791C37.4568 25.082 38.0613 25.3334 38.821 25.3334C39.5913 25.3334 40.1958 25.082 40.6345 24.5791C41.0839 24.0655 41.3086 23.4129 41.3086 22.6211V16.5065H43.5875V22.6532C43.5875 24.1404 43.1542 25.3281 42.2875 26.2161C41.4316 27.1041 40.2761 27.5482 38.821 27.5482C37.3766 27.5482 36.2211 27.1041 35.3544 26.2161C34.4878 25.3281 34.0545 24.1404 34.0545 22.6532ZM49.7098 19.0422C50.6941 19.0422 51.4698 19.3579 52.0369 19.9891C52.604 20.6204 52.8875 21.5031 52.8875 22.6372V27.2593H50.7209V22.9582C50.7209 22.4018 50.5657 21.9631 50.2555 21.6422C49.9452 21.3212 49.5547 21.1607 49.0839 21.1607C48.581 21.1607 48.1531 21.3426 47.8 21.7063C47.4469 22.0594 47.2704 22.5302 47.2704 23.1187V27.2593H45.1038V19.2669H47.2062V20.2298H47.2864C47.8535 19.4381 48.6613 19.0422 49.7098 19.0422ZM54.4134 15.7041H56.58V18.2398H54.4134V15.7041ZM54.4134 19.2669H56.58V27.2593H54.4134V19.2669ZM61.9639 24.6594L64.1466 19.2669H66.3613L62.9429 27.2593H60.7763L57.3579 19.2669H59.685L61.9639 24.6594ZM70.5022 19.0262C71.8289 19.0262 72.8774 19.4969 73.6478 20.4385C74.4181 21.38 74.7284 22.5623 74.5786 23.9853H68.5442C68.6084 24.4133 68.8117 24.777 69.1541 25.0766C69.5072 25.3655 69.9512 25.5206 70.4861 25.542C70.8606 25.5634 71.2083 25.4992 71.5293 25.3495C71.861 25.189 72.0964 24.9803 72.2355 24.7235H74.4984C74.2416 25.6009 73.7494 26.2856 73.0219 26.7778C72.2943 27.2593 71.4491 27.5 70.4861 27.5C69.1915 27.5 68.1751 27.0934 67.4368 26.2803C66.6986 25.4564 66.3295 24.4507 66.3295 23.2631C66.3295 22.0648 66.72 21.059 67.501 20.2459C68.2928 19.4328 69.2932 19.0262 70.5022 19.0262ZM71.6898 21.3212C71.3581 21.0858 70.9569 20.9681 70.4861 20.9681C70.0154 20.9681 69.6034 21.0911 69.2504 21.3372C68.908 21.5726 68.678 21.8936 68.5603 22.3002H72.3799C72.2622 21.8829 72.0322 21.5566 71.6898 21.3212ZM79.7887 19.2669H81.4739V21.4335H79.6764C79.1521 21.4335 78.7242 21.6047 78.3925 21.9471C78.0608 22.2895 77.895 22.7335 77.895 23.2791V27.2593H75.7284V19.2669H77.7826V20.5187H77.8629C78.1732 19.6842 78.8151 19.2669 79.7887 19.2669ZM84.7119 19.2669H89.1093V21.3533H84.7761C84.5514 21.3533 84.439 21.4656 84.439 21.6903C84.439 21.8829 84.53 21.9952 84.7119 22.0273L87.713 22.6372C88.3229 22.7656 88.8044 23.0277 89.1574 23.4236C89.5105 23.8195 89.687 24.2956 89.687 24.8519C89.687 25.5474 89.4356 26.1252 88.9327 26.5852C88.4406 27.0346 87.8254 27.2593 87.0871 27.2593H82.465V25.1569H87.055C87.2904 25.1569 87.4081 25.0392 87.4081 24.8038C87.4081 24.6219 87.3172 24.5042 87.1353 24.4507L84.086 23.7927C83.5082 23.675 83.0374 23.4182 82.6737 23.0224C82.3099 22.6265 82.128 22.1611 82.128 21.6261C82.128 20.9414 82.3741 20.3796 82.8663 19.941C83.3584 19.4916 83.9736 19.2669 84.7119 19.2669ZM90.8213 15.7041H92.9879V18.2398H90.8213V15.7041ZM90.8213 19.2669H92.9879V27.2593H90.8213V19.2669ZM100.647 19.2669V21.3533H97.3569V24.547C97.3569 24.7396 97.4158 24.8894 97.5335 24.9964C97.6512 25.1034 97.8063 25.1569 97.9989 25.1569H100.647V27.2593H97.5977C96.8594 27.2593 96.271 27.0506 95.8323 26.6334C95.4043 26.2054 95.1903 25.633 95.1903 24.9161V21.3533H94.0669V19.2669H95.1903V16.5065H97.3569V19.2669H100.647ZM105.946 25.3334L107.904 19.2669H110.103L106.925 28.5592C106.711 29.1691 106.385 29.6399 105.946 29.9715C105.508 30.3032 104.978 30.4691 104.357 30.4691H102.078V28.3506H104.293C104.507 28.3506 104.689 28.3025 104.839 28.2062L101.164 19.2669H103.539L105.946 25.3334Z" fill="#FFC700"/>
<defs>
<clipPath id="clip0_281_2171">
<rect y="0.725586" width="28.5489" height="28.5489" rx="14.2744" fill="white"/>
</clipPath>
</defs>
</svg>
